<svg width="94" height="94" viewBox="0 0 94 94" fill="none" xmlns="http://www.w3.org/2000/svg">
<g clip-path="url(#clip0_475_509)">
<path d="M89.5056 85.0405H94V89.5349H89.5056V85.0405Z" fill="black"/>
<path d="M89.5057 4.46509H85.0407V8.95946H80.5757V13.4245H85.0407V17.9188H89.5057V13.4245H94.0001V8.95946H89.5057V4.46509Z" fill="black"/>
<path d="M85.0405 67.1514H89.5055V71.6164H85.0405V67.1514Z" fill="black"/>
<path d="M80.5757 71.6162H85.0407V76.1106H80.5757V71.6162Z" fill="black"/>
<path d="M80.5757 62.657H85.0407V67.1514H80.5757V62.657Z" fill="black"/>
<path d="M80.5757 44.7676H85.0407V49.2326H80.5757V44.7676Z" fill="black"/>
<path d="M80.5757 26.8486H85.0407V31.343H80.5757V26.8486Z" fill="black"/>
<path d="M76.0813 67.1514H80.5757V71.6164H76.0813V67.1514Z" fill="black"/>
<path d="M76.0813 49.2324H80.5757V53.7268H76.0813V49.2324Z" fill="black"/>
<path d="M76.0813 22.3838H80.5757V26.8488H76.0813V22.3838Z" fill="black"/>
<path d="M71.6162 53.7268H76.0812V58.1918H71.6162V53.7268Z" fill="black"/>
<path d="M71.6162 17.9187H76.0812V22.3837H71.6162V17.9187Z" fill="black"/>
<path d="M71.6164 94.0001V89.5351H76.0814V85.0407H71.6164V80.5757H67.122V85.0407H62.657V89.5351H67.122V94.0001H71.6164Z" fill="black"/>
<path d="M67.1218 58.1919H71.6162V62.6569H67.1218V58.1919Z" fill="black"/>
<path d="M62.657 62.657H67.122V67.1514H62.657V62.657Z" fill="black"/>
<path d="M62.657 44.7676H67.122V49.2326H62.657V44.7676Z" fill="black"/>
<path d="M62.657 26.8486H67.122V31.343H62.657V26.8486Z" fill="black"/>
<path d="M62.657 4.46509H67.122V8.95946H62.657V4.46509Z" fill="black"/>
<path d="M58.1919 67.1514H62.6569V71.6164H58.1919V67.1514Z" fill="black"/>
<path d="M58.1919 49.2324H62.6569V58.1918H58.1919V49.2324Z" fill="black"/>
<path d="M58.1919 22.3838H62.6569V26.8488H58.1919V22.3838Z" fill="black"/>
<path d="M53.6975 58.1919H58.1919V67.1513H53.6975V58.1919Z" fill="black"/>
<path d="M53.6974 67.1514H49.2324V80.5757H53.6974V76.1107H58.1918V71.6164H53.6974V67.1514Z" fill="black"/>
<path d="M49.2324 0H53.6974V4.465H49.2324V0Z" fill="black"/>
<path d="M40.2732 80.5757H49.2326V85.0407H40.2732V80.5757Z" fill="black"/>
<path d="M40.2731 67.1514H35.8081V71.6164H31.3137V76.1107H35.8081V80.5757H40.2731V67.1514Z" fill="black"/>
<path d="M31.3137 58.1919H35.8081V67.1513H31.3137V58.1919Z" fill="black"/>
<path d="M26.8486 67.1514H31.3136V71.6164H26.8486V67.1514Z" fill="black"/>
<path d="M26.8486 49.2324H31.3136V58.1918H26.8486V49.2324Z" fill="black"/>
<path d="M26.8486 22.3838H31.3136V26.8488H26.8486V22.3838Z" fill="black"/>
<path d="M26.8486 4.46509H31.3136V8.95946H26.8486V4.46509Z" fill="black"/>
<path d="M22.3838 80.5757H26.8488V85.0407H22.3838V80.5757Z" fill="black"/>
<path d="M22.3838 62.657H26.8488V67.1514H22.3838V62.657Z" fill="black"/>
<path d="M22.3838 44.7676H26.8488V49.2326H22.3838V44.7676Z" fill="black"/>
<path d="M22.3838 26.8486H26.8488V31.343H22.3838V26.8486Z" fill="black"/>
<path d="M31.3138 17.9187V22.3837H35.8082V17.9187H53.6975V22.3837H58.1919V17.9187H71.6163V13.4243H17.8894V17.9187H31.3138Z" fill="black"/>
<path d="M17.8894 58.1919H22.3838V62.6569H17.8894V58.1919Z" fill="black"/>
<path d="M13.4243 53.7268H17.8893V58.1918H13.4243V53.7268Z" fill="black"/>
<path d="M13.4243 17.9187H17.8893V22.3837H13.4243V17.9187Z" fill="black"/>
<path d="M8.92993 71.6162H13.4243V76.1106H8.92993V71.6162Z" fill="black"/>
<path d="M8.92993 49.2324H13.4243V53.7268H8.92993V49.2324Z" fill="black"/>
<path d="M8.92993 22.3838H13.4243V26.8488H8.92993V22.3838Z" fill="black"/>
<path d="M4.46509 89.5349H8.93009V93.9999H4.46509V89.5349Z" fill="black"/>
<path d="M4.46509 76.1106H8.93009V80.5756H4.46509V76.1106Z" fill="black"/>
<path d="M4.46509 67.1514H8.93009V71.6164H4.46509V67.1514Z" fill="black"/>
<path d="M4.46509 44.7676H8.93009V49.2326H4.46509V44.7676Z" fill="black"/>
<path d="M4.465 40.273H17.8894V44.7674H22.3837V40.273H67.1219V44.7674H71.6162V40.273H85.0406V44.7674H89.5056V31.343H85.0406V35.808H71.6162V31.343H67.1219V35.808H22.3837V31.343H17.8894V35.808H4.465V31.343H0V44.7674H4.465V40.273Z" fill="black"/>
<path d="M4.46509 26.8486H8.93009V31.343H4.46509V26.8486Z" fill="black"/>
<path d="M4.465 13.4244H8.93V8.95937H13.4244V4.465H8.93V0H4.465V4.465H0V8.95937H4.465V13.4244Z" fill="black"/>
<path d="M0 71.6162H4.465V76.1106H0V71.6162Z" fill="black"/>
</g>
<defs>
<clipPath id="clip0_475_509">
<rect width="94" height="94" fill="white"/>
</clipPath>
</defs>
</svg>
