<svg width="86" height="86" viewBox="0 0 86 86" fill="none" xmlns="http://www.w3.org/2000/svg">
<g clip-path="url(#clip0_475_394)">
<path d="M81.8882 32.7606H86.0001V53.2394H81.8882V32.7606Z" fill="black"/>
<path d="M77.8031 8.19687V0H73.7181V4.085H69.6062V8.19687H65.5212V20.4788H77.8031V16.3937H81.8881V12.2819H86V8.19687H77.8031Z" fill="black"/>
<path d="M77.8032 53.2394H81.8882V61.4363H77.8032V53.2394Z" fill="black"/>
<path d="M77.8032 24.5637H81.8882V32.7606H77.8032V24.5637Z" fill="black"/>
<path d="M73.718 61.4363H77.803V69.6332H73.718V61.4363Z" fill="black"/>
<path d="M69.6062 69.6332H73.7181V73.7182H69.6062V69.6332Z" fill="black"/>
<path d="M61.4363 73.7181H69.6063V77.8031H61.4363V73.7181Z" fill="black"/>
<path d="M61.4363 20.4788H65.5213V24.5638H61.4363V20.4788Z" fill="black"/>
<path d="M57.3245 24.5637H61.4363V28.6756H57.3245V24.5637Z" fill="black"/>
<path d="M53.2393 77.8031H61.4361V81.915H53.2393V77.8031Z" fill="black"/>
<path d="M53.2393 36.8726H57.3243V49.1544H53.2393V36.8726Z" fill="black"/>
<path d="M53.2393 28.6757H57.3243V32.7607H53.2393V28.6757Z" fill="black"/>
<path d="M53.2393 4.08496H61.4361V8.19684H53.2393V4.08496Z" fill="black"/>
<path d="M49.1274 49.1544H53.2393V53.2394H49.1274V49.1544Z" fill="black"/>
<path d="M49.1274 32.7606H53.2393V36.8725H49.1274V32.7606Z" fill="black"/>
<path d="M32.7607 81.915H53.2395V86H32.7607V81.915Z" fill="black"/>
<path d="M45.0425 36.8726H49.1275V40.9576H45.0425V36.8726Z" fill="black"/>
<path d="M36.8457 53.2394H49.1276V57.3244H36.8457V53.2394Z" fill="black"/>
<path d="M40.9575 40.9575H45.0425V45.0425H40.9575V40.9575Z" fill="black"/>
<path d="M36.8457 28.6757H49.1276V32.7607H36.8457V28.6757Z" fill="black"/>
<path d="M32.7607 0H53.2395V4.085H32.7607V0Z" fill="black"/>
<path d="M32.7607 49.1544H36.8457V53.2394H32.7607V49.1544Z" fill="black"/>
<path d="M32.7607 32.7606H36.8457V36.8725H32.7607V32.7606Z" fill="black"/>
<path d="M24.5637 77.8031H32.7606V81.915H24.5637V77.8031Z" fill="black"/>
<path d="M28.6487 36.8726H32.7606V49.1544H28.6487V36.8726Z" fill="black"/>
<path d="M24.5637 4.08496H32.7606V8.19684H24.5637V4.08496Z" fill="black"/>
<path d="M16.3669 73.7181H24.5638V77.8031H16.3669V73.7181Z" fill="black"/>
<path d="M16.3669 8.1969H24.5638V12.2819H16.3669V8.1969Z" fill="black"/>
<path d="M20.4789 32.7606H24.5639V24.5637H32.7607V20.4787H57.3245V16.3937H53.2395V12.2819H32.7607V16.3937H24.5639V20.4787H20.4789V24.5637H16.367V32.7606H12.282V53.2394H16.367V61.4362H20.4789V65.5212H24.5639V69.6331H32.7607V73.7181H53.2395V69.6331H61.4364V65.5212H65.5214V61.4362H69.6064V53.2394H73.7182V32.7606H69.6064V28.6756H65.5214V53.2394H61.4364V61.4362H57.3245V65.5212H32.7607V61.4362H24.5639V53.2394H20.4789V32.7606Z" fill="black"/>
<path d="M12.282 69.6332H16.367V73.7182H12.282V69.6332Z" fill="black"/>
<path d="M12.282 12.2819H16.367V16.3937H12.282V12.2819Z" fill="black"/>
<path d="M8.19678 61.4363H12.2818V69.6332H8.19678V61.4363Z" fill="black"/>
<path d="M8.19678 16.3938H12.2818V24.5638H8.19678V16.3938Z" fill="black"/>
<path d="M4.08496 53.2394H8.19684V61.4363H4.08496V53.2394Z" fill="black"/>
<path d="M4.08496 24.5637H8.19684V32.7606H4.08496V24.5637Z" fill="black"/>
<path d="M0 32.7606H4.085V53.2394H0V32.7606Z" fill="black"/>
</g>
<defs>
<clipPath id="clip0_475_394">
<rect width="86" height="86" fill="white"/>
</clipPath>
</defs>
</svg>
