<svg width="95" height="95" viewBox="0 0 95 95" fill="none" xmlns="http://www.w3.org/2000/svg">
<path d="M88.2015 42.9727H92.7437V52.0273H88.2015V42.9727Z" fill="black"/>
<path d="M83.6891 52.0273H88.2016V56.5398H83.6891V52.0273Z" fill="black"/>
<path d="M83.6891 38.4602H88.2016V42.9727H83.6891V38.4602Z" fill="black"/>
<path d="M79.1765 56.5398H83.689V61.082H79.1765V56.5398Z" fill="black"/>
<path d="M79.1765 33.918H83.689V38.4602H79.1765V33.918Z" fill="black"/>
<path d="M70.1218 61.082H79.1765V65.5945H70.1218V61.082Z" fill="black"/>
<path d="M70.1218 29.4055H79.1765V33.918H70.1218V29.4055Z" fill="black"/>
<path d="M61.0671 65.5945H70.1218V70.107H61.0671V65.5945Z" fill="black"/>
<path d="M61.0671 38.4602H65.5796V56.5399H61.0671V38.4602Z" fill="black"/>
<path d="M61.0671 24.8931H70.1218V29.4056H61.0671V24.8931Z" fill="black"/>
<path d="M56.5547 56.5398H61.0672V61.082H56.5547V56.5398Z" fill="black"/>
<path d="M56.5547 33.918H61.0672V38.4602H56.5547V33.918Z" fill="black"/>
<path d="M33.9327 70.1072H61.0671V74.6494H33.9327V70.1072Z" fill="black"/>
<path d="M38.4453 61.082H56.5547V65.5945H38.4453V61.082Z" fill="black"/>
<path d="M52.0125 38.4602H42.9875V42.9727H38.4453V52.0274H42.9875V56.5399H52.0125V52.0274H56.5547V42.9727H52.0125V38.4602Z" fill="black"/>
<path d="M38.4453 29.4055H56.5547V33.918H38.4453V29.4055Z" fill="black"/>
<path d="M33.9327 20.3508H61.0671V24.893H33.9327V20.3508Z" fill="black"/>
<path d="M33.9327 56.5398H38.4452V61.082H33.9327V56.5398Z" fill="black"/>
<path d="M33.9327 33.918H38.4452V38.4602H33.9327V33.918Z" fill="black"/>
<path d="M24.8781 65.5945H33.9327V70.107H24.8781V65.5945Z" fill="black"/>
<path d="M29.3906 38.4602H33.9328V56.5399H29.3906V38.4602Z" fill="black"/>
<path d="M24.8781 24.8931H33.9327V29.4056H24.8781V24.8931Z" fill="black"/>
<path d="M15.8234 61.082H24.8781V65.5945H15.8234V61.082Z" fill="black"/>
<path d="M15.8234 29.4055H24.8781V33.918H15.8234V29.4055Z" fill="black"/>
<path d="M11.3109 56.5398H15.8234V61.082H11.3109V56.5398Z" fill="black"/>
<path d="M11.3109 33.918H15.8234V38.4602H11.3109V33.918Z" fill="black"/>
<path d="M6.79846 52.0273H11.311V56.5398H6.79846V52.0273Z" fill="black"/>
<path d="M6.79846 38.4602H11.311V42.9727H6.79846V38.4602Z" fill="black"/>
<path d="M2.25623 42.9727H6.79841V52.0273H2.25623V42.9727Z" fill="black"/>
</svg>
